inDegrees=yes
name=ik_S46_A11_T03
DataType=double
version=3
OpenSimVersion=4.3-2021-08-27-4bc7ad9
endheader
time	pelvis_tilt	pelvis_list	pelvis_rotation	pelvis_tx	pelvis_ty	pelvis_tz	hip_flexion_r	hip_adduction_r	hip_rotation_r	knee_angle_r	knee_angle_r_beta	ankle_angle_r	subtalar_angle_r	mtp_angle_r	hip_flexion_l	hip_adduction_l	hip_rotation_l	knee_angle_l	knee_angle_l_beta	ankle_angle_l	subtalar_angle_l	mtp_angle_l	lumbar_extension	lumbar_bending	lumbar_rotation	arm_flex_r	arm_add_r	arm_rot_r	elbow_flex_r	pro_sup_r	wrist_flex_r	wrist_dev_r	arm_flex_l	arm_add_l	arm_rot_l	elbow_flex_l	pro_sup_l	wrist_flex_l	wrist_dev_l
11.39999999999985	1.475648394659285	-1.333311690717312	35.79812410261437	0	0.9399999999999999	0	45.1194221393669	-10.00583885071851	-10.02493907358046	54.77041367163281	0.9559240512493089	0	0	0	45.1194221393669	-10.00583885071851	-10.02493907358046	54.77041367163281	0.9559240512493089	0	0	0	0.2375443967273491	-1.529782752701534	20.62367371672731	14.34397428525991	-24.47694220820335	-25.04553966662155	39.75337917510198	74.23020646007139	0	0	3.525850244259843	-4.463529642610013	-1.363564316780117	-1.403249696989039	109.2273288387085	0	0
11.41999999999985	1.14331919495392	-1.448368789443228	35.63769808554363	0	0.9399999999999999	0	45.11852971397811	-10.00573222582207	-10.02460468646759	54.77188410476603	0.955949715148914	0	0	0	45.11852971397811	-10.00573222582207	-10.02460468646759	54.77188410476603	0.955949715148914	0	0	0	-0.09773479311430244	-1.421102545045999	20.4410961993894	13.74126664668295	-22.29418043145155	-25.40425925002483	34.81641297630134	77.40950337806596	0	0	4.076508513901637	-4.063455215482374	-1.713310732823389	-1.352374617749157	109.4607267143626	0	0
11.43999999999984	1.057426026849148	-1.495509052924988	35.32058239406309	0	0.9399999999999999	0	45.11845526309442	-10.00571972379998	-10.02457019165831	54.77198058234307	0.9559513990002877	0	0	0	45.11845526309442	-10.00571972379998	-10.02457019165831	54.77198058234307	0.9559513990002877	0	0	0	-0.1889466005127616	-1.40763177843982	20.71885891380971	14.00502107845831	-22.21256175568317	-25.64604694967004	28.69786700113302	80.13754043326763	0	0	4.12228396199033	-4.281356945035559	-1.202953422327617	-1.105266998274407	109.0740793398152	0	0
11.45999999999984	0.8904651388467477	-1.56855228556189	35.32721905124092	0	0.9399999999999999	0	45.11773214372146	-10.00563395211969	-10.02429991292022	54.77316267071194	0.9559720303343741	0	0	0	45.11773214372146	-10.00563395211969	-10.02429991292022	54.77316267071194	0.9559720303343741	0	0	0	-0.3665379095622775	-1.367811705064153	20.65171102178954	13.26595372724207	-20.04203452329847	-26.23633059916937	23.99810125708887	84.20874603754875	0	0	4.336653465388915	-4.186905156552985	-0.9371860728702137	-0.8919339334800677	109.0125995200631	0	0
11.47999999999984	0.715796484479454	-1.609640121863572	35.26002321480146	0	0.9399999999999999	0	45.11712573874573	-10.00556334776571	-10.02407575724437	54.77416276677533	0.9559894853035165	0	0	0	45.11712573874573	-10.00556334776571	-10.02407575724437	54.77416276677533	0.9559894853035165	0	0	0	-0.5317098271872459	-1.302655932376558	20.52943842657901	12.67860873222622	-18.13623466900272	-26.39986615415355	22.30350582182719	86.53850953418099	0	0	4.474630819312552	-4.03202153316701	-0.7540721020913081	-0.6592401791494945	108.9682585366435	0	0
11.49999999999984	0.5352689776829872	-1.611041029289986	35.18952004879436	0	0.9399999999999999	0	45.11663735655841	-10.00550624549369	-10.02389419265238	54.77495094597325	0.9560032416256158	0	0	0	45.11663735655841	-10.00550624549369	-10.02389419265238	54.77495094597325	0.9560032416256158	0	0	0	-0.6802933195295786	-1.197233990567199	20.40452614015026	11.99152890837283	-16.57221150688435	-26.50502164714701	18.10969525907808	90.58950740820997	0	0	4.558061904320249	-3.789613794815206	-0.5290631250404203	-0.3317217625085805	108.9478733094958	0	0
11.51999999999984	0.3766604696317776	-1.481594339352597	35.04902832854602	0	0.9399999999999999	0	45.11617575816877	-10.00545274233544	-10.02372338141114	54.77569613114689	0.9560162475604329	0	0	0	45.11617575816877	-10.00545274233544	-10.02372338141114	54.77569613114689	0.9560162475604329	0	0	0	-0.7376835326385993	-0.9966316965811191	20.21025764894026	11.02433275450383	-15.06497809187739	-26.32594646633736	14.73845585212214	94.55338790442769	0	0	4.453722439644832	-3.411050403087769	-0.4656176059533308	-0.07594220411071832	108.9374079855483	0	0
11.53999999999984	0.3043576844272765	-1.396115572334016	34.97505616336249	0	0.9399999999999999	0	45.11582636844754	-10.00541234486272	-10.02359396178121	54.77625217477065	0.9560259523524521	0	0	0	45.11582636844754	-10.00541234486272	-10.02359396178121	54.77625217477065	0.9560259523524521	0	0	0	-0.7515717667464952	-0.8813002308974632	20.07177315389333	10.06333763191417	-13.42056946525328	-26.0672766652963	11.79239329673754	98.21107637170059	0	0	4.404164527176081	-3.192739534110939	-0.2943151096664135	0.07617678891550221	108.9219425128417	0	0
11.55999999999984	0.1727644326464411	-1.377025353795021	34.8585982105802	0	0.9399999999999999	0	45.11577622922381	-10.00540417848146	-10.02357111008087	54.77631719151392	0.9560270871086912	0	0	0	45.11577622922381	-10.00540417848146	-10.02357111008087	54.77631719151392	0.9560270871086912	0	0	0	-0.8508542201280829	-0.7856589768701007	19.9307197053404	9.302121992197922	-11.87985612909323	-25.67719701309534	11.12491280484812	99.77342960183429	0	0	4.571247434937547	-2.949741604275761	-0.201817515856553	0.2305416407829736	108.8756159893741	0	0
11.57999999999984	0.02415334448317064	-1.345366182184795	34.90142623443435	0	0.9399999999999999	0	45.11477125893423	-10.00529263398799	-10.02321009524728	54.77801210143556	0.9560566688673485	0	0	0	45.11477125893423	-10.00529263398799	-10.02321009524728	54.77801210143556	0.9560566688673485	0	0	0	-0.9585078276954706	-0.678422449520809	19.63251526593818	6.999156376769644	-9.112987236886408	-25.27272912139445	10.57226173691113	102.5985173702719	0	0	4.666600086095772	-2.65646987610685	-0.4930801821855296	0.4822912682884398	109.1602399723457	0	0
11.59999999999984	-0.01585359754951398	-1.307308610887578	35.13948329969162	0	0.9399999999999999	0	45.11470134868654	-10.00528149031287	-10.02317863601073	54.77810356744556	0.9560582652503767	0	0	0	45.11470134868654	-10.00528149031287	-10.02317863601073	54.77810356744556	0.9560582652503767	0	0	0	-0.9812774896909963	-0.6064457341411701	19.26127985524049	6.994380539806628	-9.232023099049746	-25.08931387347937	4.97076585473236	107.8986874146115	0	0	4.719492039432237	-2.522599747830086	-0.2784118971034912	0.3819978601098022	108.8018408202916	0	0
11.61999999999984	-0.06738111778760526	-1.184194271491125	34.94538811446662	0	0.9399999999999999	0	45.11465266212142	-10.00527368732275	-10.02315664386667	54.77816687953722	0.9560593702548326	0	0	0	45.11465266212142	-10.00527368732275	-10.02315664386667	54.77816687953722	0.9560593702548326	0	0	0	-0.9533223115480122	-0.4688424868563189	19.17028851297197	5.455311398743307	-7.841424707165506	-24.65884284168498	4.577496317785729	109.5415363205403	0	0	4.717066459657999	-2.162061677613425	0.025924726344431	0.391959418275641	108.4655723097064	0	0
